PathFileType	4	(X/Y/Z)	C:\Users\WrightLab\Desktop\Jo\P1_boxCal10.trc
DataRate	CameraRate	NumFrames	NumMarkers	Units	OrigDataRate	OrigDataStartFrame	OrigNumFrames
100.00	100.00	       20	19	mm	100.00	157	       625
Frame#	Time	Headset_Front			Headset_Back			Headset_Left			Headset_Right			Left_Shoulder			Right_Shoulder			Sternum			C7			Left Elbow			Right Elbow			Left Wrist			Right Wrist			Left ASIS			Right ASIS			S2			Left Knee			Right Knee			Left Ankle			Right Ankle			
		X1	Y1	Z1	X2	Y2	Z2	X3	Y3	Z3	X4	Y4	Z4	X5	Y5	Z5	X6	Y6	Z6	X7	Y7	Z7	X8	Y8	Z8	X9	Y9	Z9	X10	Y10	Z10	X11	Y11	Z11	X12	Y12	Z12	X13	Y13	Z13	X14	Y14	Z14	X15	Y15	Z15	X16	Y16	Z16	X17	Y17	Z17	X18	Y18	Z18	X19	Y19	Z19	

157	1.560	-594.58258	1358.57324	-932.09351				-454.77020	1411.72009	-1075.35571	-679.61530	1388.69849	-1051.17444	-355.71301	1236.98401	-1118.28235	-733.59406	1210.66626	-1186.55627	-585.35217	1123.60815	-1028.64807				-248.46965	924.29059	-1155.38831				-194.97978	747.89319	-1053.43689				-493.87543	843.82233	-989.58014	-670.22064	829.89825	-1093.57117	-427.35965	859.18976	-1312.05847	-426.04620	443.40881	-964.17413	-852.25714	709.17792	-1132.98108	-499.76031	105.37968	-850.24451				
158	1.570	-597.05255	1358.01343	-923.17224				-455.85654	1409.97461	-1065.24731	-681.72626	1389.03381	-1043.29407	-356.94534	1234.82263	-1108.12720	-735.58075	1209.77124	-1177.46570	-585.03198	1120.99023	-1019.79156				-251.53883	922.37549	-1146.03882				-196.81268	745.83606	-1047.30273				-496.69998	842.37915	-980.13971	-673.56384	829.50916	-1082.12598	-430.27786	857.74780	-1302.48889	-430.64481	443.78885	-953.88464	-853.54156	706.90118	-1124.63269	-504.89926	104.11564	-841.80701				
159	1.580	-597.58527	1357.55334	-914.35150				-457.78323	1409.85669	-1058.50525	-682.38196	1387.44055	-1033.83752	-358.69284	1233.12952	-1098.56274	-737.69806	1208.70630	-1167.02881	-588.17267	1119.68298	-1010.90222				-254.81766	920.09143	-1136.22437				-198.85849	744.25897	-1039.62817				-499.81549	841.27142	-974.00592	-675.99811	829.34930	-1073.95007	-433.33905	856.23486	-1293.11682	-434.70932	443.44394	-942.60492	-854.20923	705.89874	-1118.34192	-509.33737	102.51223	-833.58154				
160	1.590	-599.19934	1357.65527	-905.17670				-458.52649	1408.29431	-1051.50610	-684.33618	1388.08313	-1025.89307	-360.53067	1232.21960	-1090.88550	-738.88336	1208.70313	-1159.33777							-256.95804	918.09265	-1127.36804				-200.66917	742.09650	-1031.57849				-501.75430	840.14020	-960.15924	-678.69391	829.37238	-1055.88110	-436.47073	854.78790	-1283.04553	-440.03705	442.59384	-931.82770	-854.98779	705.82080	-1113.55786	-513.00311	100.08901	-826.10907				
161	1.600	-600.44348	1358.45361	-896.63800				-459.54865	1408.15430	-1041.37195	-685.18738	1388.14294	-1017.14764	-362.20782	1231.34167	-1082.99866	-740.76770	1208.77307	-1149.88855	-592.04388	1118.12451	-992.20642				-260.26080	916.77594	-1118.17297				-202.48300	740.53534	-1024.31067				-505.31650	838.08862	-951.33972	-681.97052	829.41608	-1045.95227	-439.68747	853.56488	-1273.21106	-445.83011	441.97409	-919.87488				-516.06531	97.58698	-820.57953				
162	1.610	-601.66138	1358.71924	-888.04065	-545.72455	1466.55127	-1170.01331	-461.15366	1407.89392	-1035.00964	-686.23065	1387.86108	-1008.07465	-364.28888	1230.04895	-1075.02820	-742.44348	1208.62000	-1139.46863	-595.48010	1119.49426	-982.45746				-262.81705	914.54639	-1108.19910				-204.02467	738.92316	-1017.40125				-508.46884	837.47510	-942.36725	-684.85767	828.88861	-1036.27185	-443.06168	852.69525	-1263.58948	-450.17670	441.05313	-909.06848				-519.25623	93.80383	-813.74792				
163	1.620	-602.45905	1359.01819	-878.77765	-546.66162	1465.36316	-1161.30811	-461.68707	1406.79871	-1024.29065	-686.93799	1388.17700	-999.67694	-364.86737	1228.24561	-1064.53369	-743.54810	1208.07178	-1129.05334	-595.42108	1118.69312	-972.18622				-266.03888	913.33252	-1098.90430	-806.30719	934.14398	-1176.26111	-206.53653	736.80518	-1008.67200				-511.50760	838.65460	-931.71942	-687.92578	828.21979	-1025.58228	-446.38464	852.02112	-1253.84900	-454.68008	441.20169	-898.36957				-521.78339	89.41756	-808.47321				
164	1.630	-602.23785	1359.76868	-869.57605	-547.50269	1464.43567	-1153.29773	-462.31564	1407.82080	-1017.96381	-687.72620	1388.17908	-990.41791	-365.64163	1226.93005	-1055.70313	-744.99915	1208.97498	-1119.10327	-597.50372	1119.53540	-961.64496				-268.49438	910.53296	-1088.90808	-807.66107	934.15283	-1165.08252	-208.66774	735.22302	-1000.63989				-514.59784	837.04968	-921.27899	-691.69177	829.21521	-1015.40936	-449.82999	851.17871	-1243.25427	-459.43265	440.59152	-886.58966				-523.35181	86.36810	-804.34070				
165	1.640	-603.00574	1360.53259	-860.86548	-548.11267	1463.83594	-1144.98169	-463.15164	1407.22742	-1009.25922	-688.44855	1388.20288	-981.31012	-367.06592	1226.10828	-1045.17261	-745.90924	1209.37463	-1108.95544	-597.35059	1118.77112	-950.06940				-270.93265	909.39691	-1080.29663	-809.09747	934.18018	-1153.46619	-210.91518	733.09296	-991.99146				-518.05908	836.48737	-909.74878	-695.15613	829.03442	-1004.11700	-453.31076	850.03784	-1231.64575	-462.43353	439.75992	-876.69305				-524.68555	82.58572	-800.47839				
166	1.650	-603.97534	1362.18042	-852.40717				-463.47900	1407.18091	-999.94409	-688.66241	1389.06494	-972.94165	-367.95807	1225.43640	-1035.70459	-747.04694	1210.42004	-1098.68701	-600.47284	1120.53687	-940.68085				-274.18820	907.75006	-1069.58875	-810.30579	935.02582	-1143.17468	-212.72995	731.75250	-983.74133				-521.55975	837.31653	-899.22760	-697.54449	829.78412	-993.37762	-456.70996	848.80450	-1219.24683	-466.77954	437.94376	-865.81976				-525.01825	79.89444	-797.36981				
167	1.660	-603.61029	1363.52246	-843.37970	-549.10931	1462.64893	-1128.57800	-464.12839	1407.35168	-991.52087	-689.79822	1390.60449	-964.86261	-368.37970	1223.86609	-1025.29309	-747.36951	1211.38135	-1088.22546	-602.50464	1120.49670	-930.05695				-276.63278	906.62720	-1061.13660	-811.37408	935.83148	-1132.32263	-215.41565	730.55682	-975.80090				-525.41852	836.30005	-887.95581	-701.44666	831.15393	-981.58142	-459.95981	848.27789	-1206.89905	-471.29013	435.99030	-854.68652				-527.14807	76.15398	-791.98975				
168	1.670	-605.58447	1365.98413	-834.37061	-549.38495	1462.32654	-1120.35071	-464.32343	1408.44885	-983.34650	-689.64667	1390.84082	-955.08478	-368.59064	1223.18542	-1016.11493	-748.43433	1211.92200	-1077.39758	-601.47815	1121.75024	-918.09534	-528.30127	1227.38367	-1157.44543	-278.85889	905.19196	-1051.42932	-812.37701	936.98016	-1121.78369	-217.60304	728.75189	-966.68591	-867.21820	706.02002	-1056.62830	-529.49469	837.53851	-874.95251	-703.88434	831.60901	-970.18201	-463.34393	847.61340	-1194.68726	-475.19476	434.83099	-844.46497				-529.51422	74.86437	-786.88629				
169	1.680	-605.71667	1368.43628	-824.58417	-549.58472	1462.22791	-1112.01355	-464.41098	1408.76733	-973.26855	-690.10602	1391.99109	-946.10431	-369.27200	1222.14087	-1003.37878	-748.86285	1213.36877	-1066.65955	-604.33246	1123.71033	-906.82733	-528.85852	1226.89648	-1146.84167	-281.99487	903.72620	-1041.41479	-813.65814	936.80243	-1109.97888	-220.61398	727.35040	-957.94019	-869.64948	706.45502	-1047.31250	-533.18634	838.10315	-864.48517	-707.97736	833.50238	-957.70056	-466.52896	848.04303	-1183.62488	-479.53070	433.05225	-834.86243				-531.39575	74.06821	-780.60028				
170	1.690	-605.99298	1371.37659	-815.41815	-549.68701	1462.26184	-1103.30933	-464.97388	1410.67444	-965.29565	-690.22211	1393.51697	-936.96423	-369.76880	1222.29224	-996.74341	-750.37952	1215.37158	-1055.67725	-602.96710	1124.42603	-894.10931	-529.42029	1226.72974	-1135.93896	-285.18851	902.59442	-1031.81836	-814.20490	936.36316	-1096.24878	-223.10396	726.23688	-949.42010	-872.19025	707.49017	-1039.12720	-536.71344	838.95789	-850.70441	-711.11023	835.49133	-945.33331	-469.57623	847.05847	-1169.41418	-482.84238	431.71964	-825.11438	-663.16364	398.70752	-1169.86377	-531.44299	74.24307	-774.69122				
171	1.700	-606.47449	1373.97046	-805.99677	-549.62628	1462.65076	-1095.18372	-465.09552	1412.10046	-955.60382	-690.74915	1396.24719	-928.38019	-370.55774	1222.31396	-984.49799	-750.55933	1217.28430	-1044.99951	-605.64209	1126.63257	-883.57465	-530.07623	1226.75574	-1125.37634	-287.44452	902.33466	-1023.01471	-814.30762	938.49640	-1086.19568	-225.62393	725.30206	-940.80212	-874.88733	709.19092	-1031.11426	-539.29980	841.10297	-837.86249	-714.26471	838.62427	-932.72498	-472.38696	848.24615	-1158.78064	-486.34006	430.63809	-815.78693				-531.13544	72.78188	-766.48352				
172	1.710	-606.68994	1376.95667	-796.73291	-549.56061	1462.95569	-1086.69678	-465.01855	1413.46924	-946.50494	-691.08032	1398.09570	-918.93567	-370.83499	1222.70654	-975.00342	-751.44965	1219.10120	-1033.74841	-608.00769	1131.67468	-873.19684	-530.86865	1226.95911	-1114.38757	-290.81863	902.21918	-1012.76685	-815.78052	941.34180	-1077.90540	-228.55696	724.61243	-931.63434	-877.52179	711.52899	-1022.73096	-542.60126	842.02850	-827.50922	-719.22601	842.36096	-919.70441	-475.08731	848.79175	-1146.84290	-489.03888	430.26849	-805.38342	-678.51843	400.31387	-1143.12708	-531.28156	71.32581	-760.78778				
173	1.720	-607.06268	1379.65967	-787.17181	-549.57275	1463.00183	-1078.07495	-465.74603	1414.35132	-936.06635	-691.21185	1400.65466	-909.86963	-371.83017	1222.86316	-964.31573	-752.34851	1221.22083	-1022.35553	-607.09924	1131.85999	-861.19556	-532.02338	1227.46570	-1104.47839	-293.02271	902.98779	-1006.62683	-816.65143	944.00433	-1068.57263	-231.47253	724.20056	-921.83795	-880.37061	714.02655	-1014.46185	-545.54865	845.20288	-815.62653	-719.06848	843.08191	-906.77264	-477.69983	849.08472	-1134.59924	-492.88580	431.42316	-794.78717	-685.81433	400.55170	-1129.45569	-533.14410	67.66241	-754.34003				
174	1.730	-608.70276	1383.68079	-778.32611	-549.56195	1463.23938	-1069.06140	-465.55597	1416.32361	-927.95020	-691.85138	1402.98425	-900.97455	-372.57605	1223.03516	-953.56604	-753.14270	1223.31506	-1010.96704	-609.05200	1134.91638	-850.17719	-533.00873	1228.68726	-1094.01465	-296.50031	902.62915	-993.75342	-817.54688	945.74255	-1059.03381	-234.58224	724.51385	-911.95685	-882.79449	716.11798	-1005.44751	-546.16901	846.92804	-801.80725	-720.38586	845.67981	-894.00208	-480.17279	850.13776	-1123.66028	-495.97745	433.44153	-783.81177	-697.04651	401.19229	-1113.97937	-536.77875	61.90174	-750.10144				
175	1.740	-608.36804	1386.49365	-768.73297	-549.70056	1463.54858	-1060.80701	-466.65024	1416.97485	-919.53595	-691.71753	1405.13416	-891.61340	-373.95590	1223.68030	-942.84973	-754.67761	1225.90991	-1000.62793	-608.08655	1135.14648	-838.68152	-534.34412	1229.17810	-1083.37817	-299.56790	903.70569	-983.94550	-818.86914	948.19781	-1049.59094	-237.54007	724.75623	-902.01947	-885.84631	718.78381	-995.95837	-547.23206	849.08466	-788.19165	-722.31689	848.64948	-881.39771	-482.52789	850.97614	-1112.29895	-499.23117	434.96954	-774.40894	-706.78290	401.63184	-1097.72766	-538.85754	58.34635	-748.70544				
176	1.750	-609.61499	1389.72937	-759.22931	-549.94299	1464.01440	-1051.65503	-466.34351	1417.79956	-910.79785	-692.74146	1407.54163	-882.21069	-375.01489	1224.55347	-931.98175	-756.24640	1228.37012	-990.09570	-612.00702	1138.36121	-828.51672	-535.93433	1230.04382	-1072.92529	-302.35846	903.89520	-973.76459	-820.62732	951.19110	-1041.44043	-240.51866	725.43982	-891.67059	-889.41382	722.03772	-987.94208	-547.46680	853.00409	-774.82434	-723.61749	851.96082	-869.31470	-485.18103	850.71637	-1099.90723	-500.52982	436.78339	-765.01819	-716.85565	401.65973	-1082.04565	-537.75055	58.16011	-746.65332				
